<?xml version="1.0" standalone="no"?>
<!DOCTYPE svg PUBLIC "-//W3C//DTD SVG 20010904//EN"
 "http://www.w3.org/TR/2001/REC-SVG-20010904/DTD/svg10.dtd">
<svg version="1.0" xmlns="http://www.w3.org/2000/svg"
 width="200.000000pt" height="200.000000pt" viewBox="0 0 200.000000 200.000000"
 preserveAspectRatio="xMidYMid meet">
<metadata>
Created by potrace 1.16, written by Peter Selinger 2001-2019
</metadata>
<g transform="translate(0.000000,200.000000) scale(0.100000,-0.100000)"
fill="#000000" stroke="none">
<path d="M0 1000 l0 -1000 1000 0 1000 0 0 1000 0 1000 -1000 0 -1000 0 0
-1000z m1172 537 c135 -49 249 -149 311 -273 45 -91 61 -160 60 -264 -3 -262
-188 -481 -453 -536 -166 -35 -337 14 -482 138 l-28 24 98 97 98 97 29 -31
c17 -17 53 -43 80 -57 43 -23 63 -27 135 -27 73 0 93 4 142 28 52 25 118 85
118 107 0 5 -25 23 -55 40 l-56 32 -39 -36 c-83 -75 -200 -55 -249 42 -54 108
-21 231 76 281 54 28 146 5 189 -47 l21 -26 52 38 c28 21 51 40 51 43 0 19
-55 73 -101 98 -112 60 -263 42 -362 -46 l-46 -40 -95 66 c-53 37 -98 71 -102
76 -8 14 20 44 90 96 112 83 218 115 361 109 62 -3 111 -12 157 -29z"/>
</g>
</svg>
